<svg xmlns="http://www.w3.org/2000/svg" xmlnsXlink="http://www.w3.org/1999/xlink" width="100" zoomAndPan="magnify" viewBox="0 0 375 149.999998" preserveAspectRatio="xMidYMid meet" version="1.0"><path fill="#6CAC48" d="M 62.5 5.238281 L 62.5 104.035156 C 51.992188 106.019531 46.476562 106.800781 38.109375 106.800781 C 13.046875 106.777344 0 95.589844 0 74.113281 C 0 53.417969 13.835938 39.988281 35.28125 39.988281 C 38.609375 39.988281 41.140625 40.246094 44.210938 41.035156 L 44.210938 5.238281 Z M 44.210938 57.363281 C 41.804688 56.582031 39.828125 56.316406 37.289062 56.316406 C 26.914062 56.316406 20.914062 62.636719 20.914062 73.722656 C 20.914062 84.511719 26.648438 90.464844 37.15625 90.464844 C 39.429688 90.464844 41.273438 90.339844 44.210938 89.941406 Z M 44.210938 57.363281 " fill-opacity="1" fill-rule="evenodd"/><path fill="#6CAC48" d="M 93.75 36.847656 L 93.75 88.550781 C 93.75 104.769531 92.539062 113.738281 88.96875 120.457031 C 85.640625 126.917969 81.257812 130.996094 72.203125 135.496094 L 53.164062 126.519531 C 62.21875 122.308594 66.609375 118.589844 69.40625 112.910156 C 72.335938 107.105469 73.265625 99.207031 73.265625 81.527344 L 73.265625 36.832031 L 93.75 36.832031 Z M 93.75 36.847656 " fill-opacity="1" fill-rule="evenodd"/><path fill="#6CAC48" d="M 107.296875 43.332031 C 116.171875 39.019531 124.664062 37.121094 133.921875 37.121094 C 144.242188 37.121094 151.023438 39.957031 154.023438 45.503906 C 155.703125 48.605469 156.25 52.644531 156.25 61.292969 L 156.25 103.535156 C 147.25 104.871094 135.890625 105.832031 127.554688 105.832031 C 110.710938 105.832031 103.15625 99.753906 103.15625 86.261719 C 103.15625 71.667969 113.195312 64.925781 137.851562 62.777344 L 137.851562 58.207031 C 137.851562 54.433594 136.015625 53.066406 130.945312 53.066406 C 123.523438 53.066406 115.164062 55.238281 107.320312 59.410156 Z M 138.757812 76.386719 C 125.460938 77.722656 121.140625 79.894531 121.140625 85.300781 C 121.140625 89.347656 123.625 91.246094 129.109375 91.246094 C 132.109375 91.246094 134.851562 90.980469 138.757812 90.308594 Z M 138.757812 76.386719 " fill-opacity="1" fill-rule="evenodd"/><path fill="#6CAC48" d="M 167.328125 41.902344 C 179.203125 38.613281 188.984375 37.113281 198.898438 37.113281 C 209.195312 37.113281 216.65625 39.589844 221.078125 44.378906 C 225.234375 48.894531 226.5625 53.847656 226.5625 64.402344 L 226.5625 105.832031 L 206.453125 105.832031 L 206.453125 65.246094 C 206.453125 57.136719 203.835938 54.121094 196.671875 54.121094 C 193.929688 54.121094 191.445312 54.394531 187.40625 55.644531 L 187.40625 105.839844 L 167.328125 105.839844 Z M 167.328125 41.902344 " fill-opacity="1" fill-rule="evenodd"/><path fill="#6CAC48" d="M 235.757812 114.660156 C 242.9375 118.457031 250.125 120.207031 257.726562 120.207031 C 271.171875 120.207031 276.898438 116.511719 276.898438 103.207031 L 276.898438 102.800781 C 272.914062 104.816406 268.890625 105.660156 263.585938 105.660156 C 245.601562 105.660156 234.375 93.574219 234.375 74.433594 C 234.375 50.660156 251.101562 37.230469 281.046875 37.230469 C 289.84375 37.230469 297.976562 38.175781 307.820312 40.222656 L 300.796875 55.300781 C 295.335938 54.222656 300.351562 55.136719 296.234375 54.738281 L 296.234375 56.917969 L 296.5 65.746094 L 296.632812 77.160156 C 296.765625 80.019531 296.765625 82.863281 296.898438 85.722656 L 296.898438 91.425781 C 296.898438 109.355469 295.414062 115.886719 291.03125 122.832031 C 284.640625 133.003906 273.578125 138.042969 257.859375 138.042969 C 249.859375 138.042969 242.9375 136.832031 235.757812 133.972656 Z M 276.5 54.074219 L 274.351562 54.074219 C 270.367188 53.941406 265.695312 55.019531 262.492188 57.066406 C 257.585938 59.917969 255.046875 65.089844 255.046875 72.410156 C 255.046875 82.855469 260.117188 88.832031 269.171875 88.832031 C 271.96875 88.832031 274.242188 88.292969 276.882812 87.488281 L 276.882812 80.277344 C 276.882812 77.824219 276.75 75.105469 276.75 72.253906 L 276.617188 62.613281 L 276.484375 55.691406 L 276.484375 54.074219 Z M 276.5 54.074219 " fill-opacity="1" fill-rule="evenodd"/><path fill="#6CAC48" d="M 340.359375 36.847656 C 361.867188 36.847656 375 49.816406 375 70.816406 C 375 92.347656 361.3125 105.839844 339.5 105.839844 C 317.96875 105.839844 304.6875 92.878906 304.6875 72.011719 C 304.726562 50.347656 318.414062 36.847656 340.359375 36.847656 Z M 339.914062 89.238281 C 348.171875 89.238281 353.046875 82.691406 353.046875 71.316406 C 353.046875 60.074219 348.304688 53.394531 340.054688 53.394531 C 331.515625 53.394531 326.632812 59.941406 326.632812 71.316406 C 326.640625 82.691406 331.546875 89.238281 339.914062 89.238281 Z M 339.914062 89.238281 " fill-opacity="1" fill-rule="evenodd"/></svg>