<svg xmlns="http://www.w3.org/2000/svg" xmlnsXlink="http://www.w3.org/1999/xlink" width="70" zoomAndPan="magnify" viewBox="0 0 375 374.999991" height="70" preserveAspectRatio="xMidYMid meet" version="1.0"><defs><clipPath id="id1"><path d="M 29.9375 29.9375 L 344.9375 29.9375 L 344.9375 344.9375 L 29.9375 344.9375 Z M 29.9375 29.9375 " clip-rule="nonzero"/></clipPath></defs><g clip-path="url(#id1)"><path fill="#f7df1e" d="M 29.9375 29.9375 L 344.9375 29.9375 L 344.9375 344.9375 L 29.9375 344.9375 Z M 29.9375 29.9375 " fill-opacity="1" fill-rule="nonzero"/></g><path fill="#000000" d="M 112.761719 293.171875 L 136.867188 278.589844 C 141.515625 286.832031 145.746094 293.808594 155.898438 293.808594 C 165.621094 293.808594 171.761719 289.996094 171.761719 275.207031 L 171.761719 174.554688 L 201.351562 174.554688 L 201.351562 275.625 C 201.351562 306.273438 183.386719 320.242188 157.167969 320.242188 C 133.484375 320.242188 119.738281 307.972656 112.761719 293.171875 " fill-opacity="1" fill-rule="nonzero"/><path fill="#000000" d="M 217.433594 289.996094 L 241.539062 276.042969 C 247.890625 286.402344 256.132812 294.019531 270.714844 294.019531 C 282.980469 294.019531 290.808594 287.890625 290.808594 279.425781 C 290.808594 269.273438 282.773438 265.683594 269.238281 259.761719 L 261.84375 256.589844 C 240.480469 247.496094 226.320312 236.089844 226.320312 211.972656 C 226.320312 189.773438 243.226562 172.855469 269.667969 172.855469 C 288.480469 172.855469 302.015625 179.414062 311.738281 196.542969 L 288.691406 211.34375 C 283.621094 202.25 278.121094 198.65625 269.667969 198.65625 C 260.992188 198.65625 255.492188 204.160156 255.492188 211.34375 C 255.492188 220.226562 260.992188 223.820312 273.679688 229.320312 L 281.074219 232.484375 C 306.238281 243.273438 320.414062 254.261719 320.414062 279.007812 C 320.414062 305.648438 299.484375 320.242188 271.355469 320.242188 C 243.867188 320.242188 226.109375 307.125 217.433594 289.996094 " fill-opacity="1" fill-rule="nonzero"/></svg>