<svg xmlns="http://www.w3.org/2000/svg" xmlnsXlink="http://www.w3.org/1999/xlink" width="130" zoomAndPan="magnify" viewBox="0 -20 375 150" preserveAspectRatio="xMidYMid meet" version="1.0"><defs><clipPath id="id1"><path d="M 30 108 L 39 108 L 39 144.75 L 30 144.75 Z M 30 108 " clip-rule="nonzero"/></clipPath></defs><path fill="#599636" d="M 32.703125 0.546875 L 36.554688 7.800781 C 37.394531 9.113281 38.367188 10.320312 39.464844 11.425781 C 42.691406 14.65625 45.761719 18.042969 48.511719 21.671875 C 55.042969 30.257812 59.449219 39.796875 62.597656 50.125 C 64.484375 56.429688 65.511719 62.894531 65.589844 69.433594 C 65.90625 88.980469 59.214844 105.765625 45.679688 119.71875 C 43.480469 121.933594 41.121094 123.957031 38.597656 125.789062 C 37.253906 125.789062 36.628906 124.726562 36.078125 123.816406 C 35.015625 122.046875 34.421875 120.109375 34.109375 118.144531 C 33.636719 115.777344 33.320312 113.414062 33.480469 110.96875 L 33.480469 109.863281 C 33.402344 109.628906 32.222656 1.101562 32.691406 0.546875 Z M 32.703125 0.546875 " fill-opacity="1" fill-rule="nonzero"/><path fill="#6cac48" d="M 32.703125 0.3125 C 32.542969 -0.0078125 32.382812 0.234375 32.226562 0.390625 C 32.304688 1.964844 31.753906 3.382812 30.886719 4.726562 C 29.941406 6.070312 28.679688 7.089844 27.421875 8.191406 C 20.417969 14.261719 14.910156 21.59375 10.5 29.789062 C 4.675781 40.824219 1.609375 52.644531 0.746094 65.097656 C 0.359375 69.59375 2.160156 85.433594 3.582031 90.003906 C 7.433594 102.140625 14.359375 112.308594 23.371094 121.132812 C 25.578125 123.257812 27.9375 125.230469 30.375 127.121094 C 31.082031 127.121094 31.164062 126.492188 31.320312 126.015625 C 31.628906 125.007812 31.867188 123.984375 32.027344 122.941406 C 32.734375 119.003906 33.128906 115.058594 33.597656 111.121094 L 32.734375 0.3125 Z M 32.703125 0.3125 " fill-opacity="1" fill-rule="nonzero"/><g clip-path="url(#id1)"><path fill="#a8a4a4" d="M 36.566406 130.59375 C 36.722656 128.78125 37.625 127.285156 38.53125 125.789062 C 37.589844 125.398438 36.878906 124.605469 36.328125 123.734375 C 35.855469 122.945312 35.460938 121.964844 35.148438 121.132812 C 34.042969 117.824219 33.804688 114.355469 33.492188 110.964844 L 33.492188 108.914062 C 33.105469 109.230469 33.019531 111.90625 33.019531 112.304688 C 32.78125 115.925781 32.3125 119.476562 31.605469 122.941406 C 31.371094 124.359375 31.21875 125.78125 30.347656 127.039062 C 30.347656 127.199219 30.347656 127.359375 30.425781 127.59375 C 31.839844 131.769531 32.234375 136.027344 32.476562 140.363281 L 32.476562 141.9375 C 32.476562 143.828125 32.398438 143.433594 33.96875 144.058594 C 34.597656 144.296875 35.3125 144.378906 35.9375 144.847656 C 36.414062 144.847656 36.492188 144.460938 36.492188 144.140625 L 36.253906 141.539062 L 36.253906 134.285156 C 36.175781 133.023438 36.414062 131.761719 36.570312 130.578125 Z M 36.566406 130.59375 " fill-opacity="1" fill-rule="nonzero"/></g><path fill="#6a6a72" d="M 96.324219 97.628906 L 96.324219 105.132812 C 96.316406 105.433594 96.332031 105.730469 96.375 106.023438 C 96.472656 106.914062 97.015625 107.453125 97.816406 107.703125 C 98.566406 107.902344 99.324219 108.050781 100.089844 108.148438 C 100.535156 108.199219 100.683594 108.394531 100.734375 108.871094 C 100.785156 110.550781 100.636719 110.75 99.007812 110.648438 C 95.210938 110.449219 91.410156 110.402344 87.617188 110.648438 L 87.253906 110.648438 C 86.070312 110.699219 85.972656 110.597656 85.972656 109.414062 C 85.972656 109.214844 86.023438 108.96875 86.023438 108.769531 C 86.023438 108.410156 86.269531 108.226562 86.617188 108.226562 C 87.410156 108.128906 88.144531 107.929688 88.890625 107.785156 C 89.925781 107.539062 90.511719 106.894531 90.613281 105.855469 C 90.757812 104.722656 90.757812 103.539062 90.757812 102.398438 L 90.808594 89.164062 C 90.824219 88.773438 90.738281 88.40625 90.539062 88.066406 C 90.34375 87.726562 90.074219 87.46875 89.726562 87.285156 C 88.832031 86.789062 87.894531 86.394531 86.910156 86.101562 C 86.617188 86.003906 86.320312 85.957031 86.074219 85.804688 C 85.351562 85.457031 85.335938 84.816406 86.023438 84.421875 C 86.269531 84.277344 86.566406 84.175781 86.863281 84.125 C 89.863281 83.679688 92.789062 82.941406 95.636719 81.902344 C 96.230469 81.703125 96.378906 81.757812 96.429688 82.347656 C 96.480469 82.707031 96.429688 83.140625 96.378906 83.480469 C 96.285156 84.125 96.285156 84.761719 96.285156 85.359375 C 96.285156 85.605469 96.332031 85.855469 96.578125 86.003906 C 96.824219 86.152344 97.074219 86.003906 97.300781 85.859375 C 98.335938 85.0625 99.371094 84.328125 100.503906 83.691406 C 102.128906 82.800781 103.863281 82.011719 105.738281 81.765625 C 108.011719 81.46875 109.976562 82.058594 111.707031 83.542969 C 112.425781 84.183594 113.046875 84.910156 113.578125 85.714844 C 114.074219 86.4375 114.121094 86.453125 114.761719 85.960938 C 116.640625 84.574219 118.609375 83.34375 120.730469 82.453125 C 122.949219 81.515625 125.21875 81.371094 127.488281 82.15625 C 129.804688 82.996094 131.382812 84.625 132.320312 86.847656 C 133.117188 88.625 133.453125 90.460938 133.453125 92.378906 L 133.453125 105.613281 C 133.453125 106.5 133.816406 107.058594 134.6875 107.492188 C 135.628906 107.851562 136.664062 108.03125 137.648438 108.230469 C 138.289062 108.375 138.289062 108.375 138.289062 109.027344 C 138.191406 110.652344 138.046875 110.753906 136.464844 110.652344 C 132.503906 110.429688 128.542969 110.429688 124.582031 110.652344 C 123.789062 110.703125 123.789062 110.703125 123.746094 109.910156 L 123.746094 109.667969 C 123.695312 108.328125 123.695312 108.328125 124.976562 108.039062 L 126.257812 107.691406 C 126.707031 107.585938 127.074219 107.355469 127.359375 106.996094 C 127.644531 106.636719 127.789062 106.226562 127.789062 105.765625 L 127.933594 102.0625 L 127.835938 92.386719 C 127.796875 91.515625 127.617188 90.675781 127.296875 89.867188 C 126.0625 86.851562 123.351562 85.769531 120.734375 86.066406 C 118.761719 86.261719 117.035156 87.050781 115.410156 88.1875 C 115.0625 88.433594 114.816406 88.730469 114.867188 89.226562 C 115.3125 92.386719 115.011719 95.550781 115.066406 98.710938 L 115.066406 105.574219 C 115.066406 106.8125 115.558594 107.402344 116.742188 107.699219 L 119.015625 108.195312 C 119.363281 108.246094 119.558594 108.394531 119.558594 108.789062 L 119.558594 109.148438 C 119.507812 110.535156 119.414062 110.59375 118.027344 110.582031 C 114.085938 110.382812 110.136719 110.4375 106.242188 110.582031 C 104.90625 110.632812 104.800781 110.484375 104.859375 109.136719 C 104.910156 108.339844 105.003906 108.296875 105.75 108.148438 L 107.371094 107.851562 C 108.816406 107.554688 109.347656 107.015625 109.445312 105.480469 L 109.589844 102.171875 L 109.492188 92.242188 C 109.394531 91.007812 109.128906 89.824219 108.453125 88.6875 C 107.46875 86.859375 105.929688 85.921875 103.816406 85.824219 C 101.695312 85.679688 99.824219 86.464844 98.042969 87.449219 C 96.808594 88.171875 96.269531 89.027344 96.367188 90.460938 L 96.367188 97.671875 Z M 189.230469 97.929688 L 189.230469 104.890625 C 189.238281 105.386719 189.273438 105.882812 189.328125 106.375 C 189.351562 106.710938 189.472656 107.007812 189.691406 107.265625 C 189.910156 107.519531 190.183594 107.683594 190.511719 107.757812 C 191.367188 108.007812 192.238281 108.15625 193.125 108.203125 C 193.621094 108.253906 193.71875 108.449219 193.769531 108.847656 L 193.769531 109.191406 C 193.71875 110.921875 193.523438 111.117188 191.84375 111.019531 C 188.089844 110.777344 184.347656 110.824219 180.601562 111.019531 L 179.15625 111.070312 C 178.859375 111.070312 178.796875 110.925781 178.714844 110.726562 C 178.566406 110.035156 178.566406 109.34375 178.714844 108.652344 C 178.761719 108.355469 178.957031 108.289062 179.253906 108.207031 C 179.976562 108.109375 180.589844 107.960938 181.273438 107.84375 C 182.507812 107.546875 182.953125 107.050781 183 105.769531 L 183.144531 101.621094 L 183.144531 89.472656 C 183.144531 88.582031 182.796875 88.042969 182.011719 87.644531 C 181.125 87.148438 180.183594 86.804688 179.195312 86.457031 C 178.902344 86.359375 178.605469 86.257812 178.359375 86.113281 C 177.71875 85.667969 177.636719 85.027344 178.261719 84.53125 C 178.546875 84.296875 178.878906 84.164062 179.246094 84.136719 C 182.40625 83.640625 185.460938 82.949219 188.421875 81.765625 C 188.765625 81.621094 188.914062 81.714844 189.0625 82.011719 C 189.210938 82.304688 189.261719 82.652344 189.207031 82.996094 L 189.0625 85.316406 C 189.0625 85.613281 188.917969 86.039062 189.160156 86.15625 C 189.457031 86.355469 189.652344 85.910156 189.898438 85.792969 C 191.363281 84.566406 192.957031 83.542969 194.683594 82.734375 C 196.214844 82.011719 197.789062 81.546875 199.566406 81.648438 C 202.871094 81.847656 205.238281 83.527344 206.765625 86.441406 C 207.558594 87.972656 207.898438 89.648438 208.046875 91.378906 L 208.191406 94.996094 L 208.242188 105.90625 C 208.292969 106.746094 208.589844 107.292969 209.425781 107.589844 C 210.292969 107.878906 211.183594 108.09375 212.089844 108.230469 C 212.882812 108.328125 212.925781 108.476562 212.976562 109.21875 L 212.976562 109.464844 C 212.878906 111.144531 212.777344 111.191406 211.101562 111.089844 C 207.417969 110.890625 203.734375 110.890625 200.054688 111.089844 C 199.558594 111.140625 199.070312 111.089844 198.609375 111.140625 C 198.316406 111.140625 198.117188 111.089844 198.070312 110.792969 C 197.972656 110.152344 197.871094 109.511719 198.019531 108.816406 C 198.070312 108.519531 198.21875 108.371094 198.558594 108.320312 L 200.832031 107.960938 C 201.628906 107.761719 202.066406 107.238281 202.167969 106.515625 L 202.265625 105.132812 L 202.214844 94.808594 C 202.214844 93.625 202.164062 92.4375 201.917969 91.253906 C 201.328125 88.722656 199.40625 86.917969 196.796875 86.664062 C 194.523438 86.417969 192.464844 87.011719 190.582031 88.242188 C 189.644531 88.835938 189.246094 89.675781 189.246094 90.710938 L 189.246094 98.171875 C 189.246094 98.027344 189.246094 98.027344 189.296875 98.027344 Z M 189.230469 97.929688 " fill-opacity="1" fill-rule="nonzero"/><path fill="#a8a4a4" d="M 333.65625 83.949219 C 333.113281 80.34375 331.78125 77.136719 329.464844 74.320312 C 327.410156 71.792969 324.878906 69.914062 321.867188 68.6875 C 318.761719 67.40625 315.453125 67.007812 312.101562 66.910156 C 310.71875 66.859375 291.882812 67.15625 290.5 66.910156 C 290.15625 66.859375 289.910156 66.960938 289.707031 67.257812 C 289.460938 67.621094 289.214844 68 289.066406 68.394531 C 288.472656 69.730469 288.472656 69.628906 289.902344 69.824219 C 291.085938 70.023438 292.21875 70.121094 293.355469 70.46875 C 294.390625 70.8125 295.132812 71.40625 295.375 72.542969 C 295.472656 73.082031 295.574219 90.464844 295.574219 98.566406 L 295.375 104.351562 C 295.328125 104.792969 295.28125 105.238281 295.132812 105.632812 C 294.933594 106.226562 294.589844 106.71875 294 106.96875 C 293.339844 107.28125 292.652344 107.460938 291.925781 107.511719 C 290.59375 107.65625 290.398438 107.710938 289.953125 109.191406 L 289.808594 109.734375 C 289.710938 110.378906 289.757812 110.476562 290.402344 110.476562 L 305.144531 110.621094 L 310.917969 110.523438 L 314.914062 110.027344 C 319.449219 109.1875 323.496094 107.308594 326.945312 104.300781 C 328.933594 102.539062 330.511719 100.464844 331.679688 98.078125 C 333.0625 95.3125 333.652344 92.292969 333.800781 89.238281 C 334.046875 87.511719 333.945312 85.730469 333.65625 83.953125 Z M 326.503906 90.960938 C 326.304688 94.125 325.667969 97.183594 324.039062 99.949219 C 321.96875 103.554688 319.007812 106.074219 314.917969 106.960938 C 313.140625 107.320312 311.367188 107.5 309.503906 107.253906 C 308.167969 107.109375 306.890625 106.960938 305.65625 106.515625 C 303.4375 105.71875 302.648438 104.347656 302.601562 102.179688 L 302.550781 72.402344 C 302.550781 70.621094 303.34375 70.234375 304.621094 70.179688 C 306.546875 70.035156 308.519531 70.082031 310.441406 70.277344 C 312.5 70.476562 314.488281 70.957031 316.410156 71.722656 C 317.839844 72.316406 319.140625 73.125 320.308594 74.144531 C 322.972656 76.417969 324.746094 79.273438 325.722656 82.636719 C 326.515625 85.351562 326.660156 88.117188 326.515625 90.882812 Z M 374.640625 95.804688 C 374.640625 95.507812 374.640625 95.261719 374.589844 94.964844 C 374.148438 92.246094 372.714844 90.171875 370.5 88.59375 C 369.070312 87.558594 367.441406 86.867188 365.765625 86.371094 C 365.46875 86.273438 365.222656 86.171875 364.925781 86.125 C 364.976562 85.878906 365.125 85.828125 365.273438 85.777344 C 366.257812 85.285156 367.199219 84.742188 368.035156 84 C 369.566406 82.71875 370.558594 81.136719 371.089844 79.210938 C 371.386719 78.171875 371.386719 77.136719 371.289062 76.046875 C 371.207031 74.757812 370.851562 73.550781 370.21875 72.425781 C 369.589844 71.300781 368.746094 70.367188 367.6875 69.625 C 365.414062 67.945312 362.753906 67.253906 359.996094 67.203125 C 354.667969 67.105469 349.296875 67.203125 343.972656 67.203125 C 342.441406 67.203125 340.917969 67.300781 339.335938 67.058594 C 339.039062 67.007812 338.613281 66.914062 338.398438 67.257812 C 338.035156 67.902344 337.605469 68.542969 337.460938 69.28125 C 337.410156 69.628906 337.511719 69.824219 337.902344 69.875 L 341.304688 70.371094 C 342.640625 70.570312 343.578125 71.308594 343.671875 72.496094 C 343.769531 73.316406 343.816406 74.136719 343.816406 74.964844 L 343.71875 84.195312 L 343.667969 102.46875 C 343.667969 103.550781 343.523438 104.59375 343.324219 105.675781 C 343.273438 106.027344 343.132812 106.339844 342.902344 106.605469 C 342.667969 106.875 342.382812 107.058594 342.042969 107.160156 C 341.058594 107.453125 340.117188 107.75 339.082031 107.75 C 338.796875 107.722656 338.535156 107.789062 338.296875 107.945312 C 338.054688 108.101562 337.890625 108.316406 337.800781 108.589844 C 337.605469 109.035156 337.441406 109.527344 337.359375 109.972656 C 337.261719 110.566406 337.410156 110.769531 338 110.695312 C 338.445312 110.644531 354.71875 111.042969 357.777344 110.746094 C 359.601562 110.546875 361.382812 110.300781 363.199219 109.761719 C 366.300781 108.773438 369.167969 107.339844 371.433594 104.917969 C 373.308594 102.941406 374.394531 100.570312 374.488281 97.804688 C 374.632812 97.164062 374.632812 96.523438 374.632812 95.828125 Z M 350.722656 75.566406 L 350.867188 71.617188 C 350.867188 70.875 351.164062 70.53125 351.90625 70.378906 C 353.089844 70.136719 354.273438 70.234375 355.457031 70.28125 C 356.640625 70.378906 357.773438 70.527344 358.957031 70.875 C 361.121094 71.519531 362.800781 72.753906 363.789062 74.824219 C 364.246094 75.777344 364.476562 76.785156 364.480469 77.839844 C 364.53125 79.222656 364.429688 80.558594 363.886719 81.886719 C 363.050781 83.714844 361.722656 84.902344 359.796875 85.246094 C 357.871094 85.59375 352.398438 85.445312 351.5625 85.445312 C 350.820312 85.445312 350.769531 85.347656 350.769531 84.609375 L 350.769531 79.957031 C 350.652344 78.507812 350.636719 77.058594 350.71875 75.609375 Z M 366.746094 102.136719 C 365.910156 104.359375 364.378906 105.894531 362.210938 106.726562 C 361.027344 107.167969 359.84375 107.449219 358.601562 107.367188 C 357.070312 107.316406 355.546875 107.367188 354.019531 107.070312 C 351.949219 106.628906 351.007812 104.648438 350.863281 103.21875 C 350.617188 100.699219 350.765625 98.132812 350.71875 96.253906 L 350.71875 89.734375 C 350.71875 88.941406 350.816406 88.699219 351.65625 88.699219 L 356.292969 88.75 L 359.449219 89.109375 C 361.667969 89.605469 363.691406 90.449219 365.269531 92.171875 C 366.550781 93.554688 367.246094 95.234375 367.390625 97.0625 C 367.535156 98.789062 367.441406 100.46875 366.800781 102.097656 Z M 366.746094 102.136719 " fill-opacity="1" fill-rule="nonzero"/><path fill="#6a6a72" d="M 241.457031 87.257812 L 242.738281 87.457031 C 244.121094 87.507812 245.75 87.011719 246.238281 85.085938 C 246.515625 84.144531 246.515625 83.207031 246.238281 82.265625 C 245.945312 82.265625 245.796875 82.511719 245.648438 82.613281 C 244.90625 83.207031 244.070312 83.554688 243.183594 83.652344 C 241.40625 83.847656 239.632812 83.75 237.90625 83.109375 L 235.488281 82.269531 C 233.789062 81.710938 232.042969 81.484375 230.257812 81.582031 C 227.742188 81.78125 225.375 82.621094 223.15625 83.804688 C 220.789062 85.089844 219.113281 87.015625 218.320312 89.636719 C 217.875 91.167969 217.824219 92.742188 218.023438 94.324219 C 218.519531 97.933594 220.390625 100.449219 223.742188 101.785156 C 223.941406 101.835938 224.089844 101.929688 224.285156 101.984375 C 224.730469 102.230469 224.78125 102.476562 224.382812 102.820312 L 223.148438 103.660156 L 220.191406 105.488281 C 219.449219 105.933594 219.351562 106.285156 219.597656 107.066406 C 219.898438 108.007812 220.421875 108.800781 221.175781 109.4375 C 221.855469 110.023438 222.613281 110.484375 223.445312 110.824219 C 223.984375 111.070312 223.984375 111.183594 223.496094 111.617188 L 220.679688 113.640625 C 219.742188 114.363281 218.804688 115.085938 218.015625 116.011719 C 217.460938 116.605469 217.078125 117.296875 216.871094 118.085938 C 216.660156 118.875 216.648438 119.664062 216.832031 120.457031 C 217.210938 122.214844 218.0625 123.695312 219.394531 124.902344 C 220.699219 126.109375 222.210938 126.933594 223.929688 127.371094 C 226.691406 128.164062 229.554688 128.207031 232.363281 127.667969 C 236.40625 126.925781 239.941406 125.136719 242.722656 122.085938 C 244.644531 120.0625 245.777344 117.691406 245.878906 114.859375 C 245.90625 114.453125 245.894531 114.046875 245.851562 113.640625 C 245.808594 113.238281 245.726562 112.839844 245.613281 112.449219 C 245.5 112.058594 245.351562 111.679688 245.167969 111.316406 C 244.988281 110.949219 244.777344 110.605469 244.535156 110.277344 C 244.292969 109.949219 244.023438 109.644531 243.730469 109.367188 C 243.433594 109.085938 243.117188 108.832031 242.777344 108.609375 C 242.4375 108.386719 242.082031 108.191406 241.707031 108.03125 C 241.332031 107.871094 240.949219 107.742188 240.550781 107.648438 L 237.890625 107.15625 L 229.753906 106.433594 C 228.863281 106.382812 227.976562 106.234375 227.238281 105.789062 C 226.296875 105.195312 226.054688 104.0625 226.644531 103.320312 C 227.089844 102.777344 227.628906 102.429688 228.324219 102.378906 L 229.898438 102.234375 C 231.460938 102.078125 232.953125 101.671875 234.378906 101.023438 C 235.804688 100.371094 237.089844 99.507812 238.230469 98.433594 C 239.476562 97.28125 240.316406 95.878906 240.746094 94.234375 C 241.339844 92.109375 241.339844 89.898438 240.84375 87.730469 C 240.699219 87.1875 240.746094 87.136719 241.4375 87.234375 Z M 229.371094 111.855469 C 229.664062 111.90625 229.960938 111.855469 230.257812 111.855469 C 232.328125 111.953125 234.449219 112.101562 236.472656 112.652344 C 237.132812 112.847656 237.773438 113.09375 238.394531 113.390625 C 240.367188 114.476562 241.109375 116.355469 240.859375 118.378906 C 240.5625 120.601562 239.328125 122.179688 237.40625 123.222656 C 236.125 123.945312 234.691406 124.257812 233.210938 124.40625 C 232.671875 124.457031 232.175781 124.40625 231.636719 124.40625 C 229.910156 124.457031 228.234375 124.261719 226.605469 123.570312 C 225.472656 123.125 224.535156 122.484375 223.695312 121.59375 C 221.972656 119.863281 221.171875 116.703125 223.746094 114.132812 C 225.324219 112.6875 227.101562 111.664062 229.371094 111.855469 Z M 234.992188 96.445312 C 233.957031 99.0625 231.6875 99.855469 229.421875 99.507812 C 227.347656 99.210938 225.820312 98.078125 224.835938 96.199219 C 223.554688 93.679688 223.214844 91.066406 223.949219 88.34375 C 224.492188 86.320312 225.726562 84.789062 227.894531 84.441406 C 230.652344 83.945312 233.304688 84.9375 234.699219 87.703125 C 235.421875 89.039062 235.734375 90.664062 235.734375 92.984375 C 235.683594 93.925781 235.488281 95.207031 234.996094 96.445312 Z M 172.859375 93.085938 C 172.417969 90.417969 171.429688 87.996094 169.605469 85.972656 C 166.890625 82.960938 163.441406 81.636719 159.542969 81.625 C 156.140625 81.578125 152.941406 82.566406 150.074219 84.34375 C 148.667969 85.1875 147.464844 86.261719 146.46875 87.570312 C 145.46875 88.875 144.75 90.320312 144.304688 91.902344 C 143.46875 94.765625 143.511719 97.683594 144.160156 100.59375 C 145.886719 108.398438 151.90625 111.75 159.101562 111.261719 C 161.222656 111.117188 163.242188 110.421875 165.164062 109.480469 C 168.023438 108.144531 170.097656 106.023438 171.523438 103.207031 C 172.65625 100.886719 173.148438 98.417969 173.101562 95.601562 L 172.855469 93.082031 Z M 165.859375 104.050781 C 165.683594 104.605469 165.429688 105.125 165.105469 105.605469 C 164.777344 106.089844 164.386719 106.515625 163.9375 106.882812 C 163.484375 107.25 162.992188 107.546875 162.453125 107.769531 C 161.914062 107.996094 161.359375 108.136719 160.777344 108.199219 C 158.613281 108.496094 156.585938 107.953125 154.761719 106.667969 C 153.429688 105.683594 152.394531 104.449219 151.65625 102.960938 C 149.636719 98.8125 149.289062 94.46875 150.320312 90.023438 C 150.660156 88.621094 151.351562 87.417969 152.390625 86.417969 C 154.21875 84.738281 156.335938 84.34375 158.707031 84.839844 C 160.980469 85.335938 162.703125 86.566406 164.121094 88.445312 C 165.539062 90.324219 166.191406 92.492188 166.585938 94.769531 C 166.785156 95.90625 166.785156 97.089844 166.832031 97.832031 C 166.832031 100.203125 166.632812 102.167969 165.890625 104.054688 Z M 280.609375 93.484375 C 280.25 90.617188 279.183594 88 277.15625 85.828125 C 274.496094 82.917969 271.039062 81.679688 267.199219 81.628906 C 263.890625 81.578125 260.835938 82.519531 258.023438 84.148438 C 254.867188 86.027344 252.699219 88.691406 251.863281 92.296875 C 251.363281 94.265625 251.214844 96.257812 251.417969 98.277344 C 251.621094 100.300781 252.164062 102.222656 253.046875 104.050781 C 254.667969 107.507812 257.433594 109.730469 261.085938 110.71875 C 265.125 111.800781 268.976562 111.3125 272.722656 109.480469 C 275.976562 107.902344 278.292969 105.433594 279.625 102.074219 C 280.417969 100.097656 280.707031 97.976562 280.757812 95.503906 C 280.808594 95.058594 280.707031 94.269531 280.613281 93.480469 Z M 273.804688 103.410156 C 273.011719 106.078125 271.339844 107.804688 268.527344 108.203125 C 266.457031 108.5 264.488281 108.003906 262.707031 106.820312 C 261.179688 105.78125 260.097656 104.398438 259.304688 102.769531 C 258.417969 101.042969 257.921875 99.214844 257.730469 97.339844 C 257.433594 95.019531 257.433594 92.75 257.972656 90.425781 C 258.078125 89.96875 258.226562 89.523438 258.417969 89.09375 C 259.800781 85.632812 262.855469 84.054688 266.457031 84.847656 C 268.875 85.390625 270.699219 86.726562 272.082031 88.75 C 273.414062 90.726562 274.054688 92.898438 274.351562 95.253906 C 274.496094 96.195312 274.550781 97.179688 274.496094 98.019531 C 274.496094 99.945312 274.351562 101.722656 273.777344 103.449219 Z M 273.804688 103.410156 " fill-opacity="1" fill-rule="nonzero"/></svg>