<svg xmlns="http://www.w3.org/2000/svg" xmlnsXlink="http://www.w3.org/1999/xlink" width="70" zoomAndPan="magnify" viewBox="0 0 375 374.999991" height="70" preserveAspectRatio="xMidYMid meet" version="1.0"><defs><clipPath id="id1"><path d="M 0 24.921875 L 50 24.921875 L 50 221 L 0 221 Z M 0 24.921875 " clip-rule="nonzero"/></clipPath><clipPath id="id2"><path d="M 228 24.921875 L 278 24.921875 L 278 221 L 228 221 Z M 228 24.921875 " clip-rule="nonzero"/></clipPath><clipPath id="id3"><path d="M 0 24.921875 L 139 24.921875 L 139 172 L 0 172 Z M 0 24.921875 " clip-rule="nonzero"/></clipPath><clipPath id="id4"><path d="M 138 24.921875 L 278 24.921875 L 278 172 L 138 172 Z M 138 24.921875 " clip-rule="nonzero"/></clipPath><clipPath id="id5"><path d="M 236 203 L 375 203 L 375 350.421875 L 236 350.421875 Z M 236 203 " clip-rule="nonzero"/></clipPath></defs><g clip-path="url(#id1)"><path fill="#29b6f6" d="M 0.175781 24.921875 L 49.042969 57.472656 L 49.042969 220.222656 L 0.175781 187.671875 Z M 0.175781 24.921875 " fill-opacity="1" fill-rule="nonzero"/></g><path fill="#0288d1" d="M 374.824219 146.984375 L 325.957031 179.535156 L 325.957031 285.324219 L 374.824219 252.773438 Z M 374.824219 146.984375 " fill-opacity="1" fill-rule="nonzero"/><path fill="#0288d1" d="M 374.824219 33.058594 L 325.957031 65.609375 L 325.957031 122.574219 L 374.824219 90.023438 Z M 374.824219 33.058594 " fill-opacity="1" fill-rule="nonzero"/><g clip-path="url(#id2)"><path fill="#0288d1" d="M 277.089844 24.921875 L 228.222656 57.472656 L 228.222656 220.222656 L 277.089844 187.671875 Z M 277.089844 24.921875 " fill-opacity="1" fill-rule="nonzero"/></g><g clip-path="url(#id3)"><path fill="#29b6f6" d="M 0.175781 81.886719 L 138.632812 171.398438 L 138.632812 114.433594 L 0.175781 24.921875 Z M 0.175781 81.886719 " fill-opacity="1" fill-rule="nonzero"/></g><g clip-path="url(#id4)"><path fill="#0288d1" d="M 277.089844 81.886719 L 138.632812 171.398438 L 138.632812 114.433594 L 277.089844 24.921875 Z M 277.089844 81.886719 " fill-opacity="1" fill-rule="nonzero"/></g><path fill="#0288d1" d="M 277.089844 195.808594 L 138.632812 285.324219 L 138.632812 228.359375 L 277.089844 138.847656 Z M 277.089844 195.808594 " fill-opacity="1" fill-rule="nonzero"/><g clip-path="url(#id5)"><path fill="#0288d1" d="M 374.824219 260.910156 L 236.367188 350.421875 L 236.367188 293.460938 L 374.824219 203.949219 Z M 374.824219 260.910156 " fill-opacity="1" fill-rule="nonzero"/></g><path fill="#29b6f6" d="M 236.367188 291.546875 L 138.632812 228.359375 L 138.632812 285.324219 L 236.367188 348.511719 Z M 236.367188 291.546875 " fill-opacity="1" fill-rule="nonzero"/></svg>