<svg xmlns="http://www.w3.org/2000/svg" xmlnsXlink="http://www.w3.org/1999/xlink" width="125" zoomAndPan="magnify" viewBox="0 0 375 149.999998" preserveAspectRatio="xMidYMid meet" version="1.0"><path fill="#00618a" d="M 42.207031 137.039062 L 51.554688 137.039062 L 51.554688 100.183594 L 66.023438 132.324219 C 67.730469 136.199219 70.066406 137.589844 74.648438 137.589844 C 79.230469 137.589844 81.480469 136.214844 83.1875 132.324219 L 97.65625 100.183594 L 97.65625 137.054688 L 107.003906 137.054688 L 107.003906 100.246094 C 107.003906 96.65625 105.5625 94.917969 102.601562 94.019531 C 95.5 91.808594 90.738281 93.722656 88.582031 98.511719 L 74.382812 130.230469 L 60.632812 98.496094 C 58.566406 93.707031 53.710938 91.792969 46.613281 94.007812 C 43.644531 94.90625 42.207031 96.640625 42.207031 100.230469 Z M 114.773438 107.03125 L 124.117188 107.03125 L 124.117188 127.34375 C 124.027344 128.449219 124.46875 131.039062 129.589844 131.117188 C 132.203125 131.160156 149.75 131.117188 149.914062 131.117188 L 149.914062 106.929688 L 159.277344 106.929688 C 159.320312 106.929688 159.269531 139.910156 159.269531 140.050781 C 159.320312 148.1875 149.164062 149.953125 144.488281 150.089844 L 114.976562 150.089844 L 114.976562 143.808594 L 144.539062 143.804688 C 150.554688 143.167969 149.84375 140.183594 149.84375 139.179688 L 149.84375 136.730469 L 129.980469 136.730469 C 120.738281 136.648438 114.855469 132.617188 114.78125 127.980469 C 114.773438 127.566406 114.980469 107.230469 114.777344 107.03125 Z M 114.773438 107.03125 " fill-opacity="1" fill-rule="nonzero"/><path fill="#e48e00" d="M 166.480469 137.039062 L 193.351562 137.039062 C 196.496094 137.039062 199.554688 136.382812 201.980469 135.242188 C 206.027344 133.390625 208.003906 130.875 208.003906 127.582031 L 208.003906 120.761719 C 208.003906 118.066406 205.757812 115.554688 201.355469 113.878906 C 199.015625 112.980469 196.140625 112.5 193.355469 112.5 L 182.03125 112.5 C 178.257812 112.5 176.460938 111.363281 176.011719 108.851562 C 175.921875 108.550781 175.921875 108.296875 175.921875 108.011719 L 175.921875 103.765625 C 175.921875 103.523438 175.921875 103.285156 176.011719 102.984375 C 176.460938 101.070312 177.449219 100.53125 180.773438 100.21875 C 181.042969 100.21875 181.402344 100.15625 181.675781 100.15625 L 208.363281 100.15625 L 208.363281 93.933594 L 182.125 93.933594 C 178.347656 93.933594 176.371094 94.171875 174.574219 94.710938 C 168.996094 96.449219 166.566406 99.214844 166.566406 104.003906 L 166.566406 109.449219 C 166.566406 113.640625 171.332031 117.230469 179.328125 118.066406 C 180.226562 118.128906 181.125 118.1875 182.023438 118.1875 L 191.730469 118.1875 C 192.089844 118.1875 192.449219 118.1875 192.71875 118.25 C 195.683594 118.488281 196.945312 119.027344 197.839844 120.101562 C 198.394531 120.65625 198.5625 121.183594 198.5625 121.761719 L 198.5625 127.210938 C 198.5625 127.867188 198.113281 128.707031 197.214844 129.421875 C 196.40625 130.144531 195.058594 130.621094 193.257812 130.742188 C 192.898438 130.742188 192.628906 130.800781 192.269531 130.800781 L 166.480469 130.800781 Z M 266.304688 126.207031 C 266.304688 132.613281 271.066406 136.203125 280.683594 136.921875 C 281.578125 136.988281 282.476562 137.03125 283.378906 137.039062 L 307.730469 137.039062 L 307.730469 130.816406 L 283.199219 130.816406 C 277.714844 130.816406 275.648438 129.4375 275.648438 126.148438 L 275.648438 93.945312 L 266.300781 93.945312 L 266.300781 126.203125 Z M 213.964844 126.53125 L 213.964844 104.34375 C 213.964844 98.707031 217.925781 95.285156 225.761719 94.207031 C 226.597656 94.085938 227.4375 94.027344 228.28125 94.027344 L 246.023438 94.027344 C 246.898438 94.027344 247.769531 94.085938 248.636719 94.207031 C 256.46875 95.285156 260.433594 98.703125 260.433594 104.34375 L 260.433594 126.53125 C 260.433594 131.105469 258.75 133.550781 254.871094 135.148438 L 264.078125 143.449219 L 253.226562 143.449219 L 245.777344 136.734375 L 238.277344 137.207031 L 228.28125 137.207031 C 226.574219 137.207031 224.773438 136.96875 222.789062 136.429688 C 216.832031 134.808594 213.964844 131.691406 213.964844 126.53125 Z M 224.054688 125.976562 C 224.054688 126.277344 224.144531 126.578125 224.234375 126.9375 C 224.785156 129.515625 227.203125 130.957031 230.882812 130.957031 L 239.371094 130.957031 L 231.574219 123.921875 L 242.425781 123.921875 L 249.214844 130.058594 C 250.46875 129.390625 251.292969 128.367188 251.566406 127.058594 C 251.65625 126.757812 251.65625 126.460938 251.65625 126.160156 L 251.65625 104.882812 C 251.65625 104.644531 251.65625 104.332031 251.566406 104.042969 C 251.015625 101.644531 248.59375 100.265625 244.992188 100.265625 L 230.90625 100.265625 C 226.75 100.265625 224.0625 102.066406 224.0625 104.882812 L 224.0625 125.996094 Z M 224.054688 125.976562 " fill-opacity="1" fill-rule="nonzero"/><path fill="#00618a" d="M 315.949219 83.621094 C 310.203125 83.464844 305.816406 84 302.0625 85.578125 C 300.996094 86.027344 299.296875 86.039062 299.121094 87.375 C 299.707031 87.988281 299.800781 88.902344 300.265625 89.65625 C 301.160156 91.105469 302.675781 93.046875 304.023438 94.0625 C 305.496094 95.175781 307.015625 96.367188 308.597656 97.328125 C 311.410156 99.042969 314.550781 100.019531 317.257812 101.734375 C 318.851562 102.746094 320.4375 104.019531 321.992188 105.160156 C 322.761719 105.726562 323.28125 106.605469 324.277344 106.957031 L 324.277344 106.792969 C 323.753906 106.125 323.617188 105.207031 323.136719 104.511719 L 321.011719 102.390625 C 318.933594 99.621094 316.300781 97.21875 313.5 95.207031 C 311.265625 93.605469 306.261719 91.441406 305.328125 88.839844 L 305.167969 88.679688 C 306.75 88.5 308.605469 87.925781 310.070312 87.535156 C 312.527344 86.878906 314.722656 87.046875 317.257812 86.394531 L 320.691406 85.414062 L 320.691406 84.761719 C 319.40625 83.449219 318.492188 81.707031 317.09375 80.519531 C 313.4375 77.40625 309.445312 74.300781 305.335938 71.707031 C 303.054688 70.265625 300.238281 69.332031 297.820312 68.113281 C 297.007812 67.703125 295.578125 67.492188 295.042969 66.808594 C 293.773438 65.191406 293.082031 63.140625 292.105469 61.273438 C 290.054688 57.328125 288.039062 53.019531 286.222656 48.871094 C 284.984375 46.039062 284.171875 43.25 282.628906 40.710938 C 275.210938 28.527344 267.226562 21.175781 254.859375 13.949219 C 252.226562 12.414062 249.058594 11.804688 245.710938 11.011719 L 240.320312 10.683594 C 239.222656 10.226562 238.082031 8.886719 237.050781 8.234375 C 232.953125 5.648438 222.441406 0.0234375 219.410156 7.40625 C 217.492188 12.070312 222.269531 16.625 223.980469 18.992188 C 225.183594 20.652344 226.71875 22.511719 227.574219 24.378906 C 228.140625 25.605469 228.238281 26.832031 228.71875 28.132812 C 229.90625 31.316406 230.941406 34.804688 232.476562 37.761719 C 233.25 39.253906 234.109375 40.828125 235.089844 42.167969 C 235.691406 42.988281 236.722656 43.347656 236.886719 44.617188 C 235.878906 46.027344 235.820312 48.214844 235.253906 50 C 232.699219 58.042969 233.660156 68.039062 237.375 73.992188 C 238.515625 75.816406 241.199219 79.738281 244.890625 78.234375 C 248.117188 76.917969 247.382812 72.851562 248.320312 69.257812 C 248.527344 68.441406 248.402344 67.847656 248.8125 67.300781 L 248.8125 67.464844 L 251.753906 73.339844 C 253.925781 76.839844 257.792969 80.5 261.0625 82.96875 C 262.761719 84.25 264.109375 86.464844 266.292969 87.210938 L 266.292969 87.046875 L 266.128906 87.046875 C 265.703125 86.382812 265.039062 86.113281 264.492188 85.582031 C 263.214844 84.328125 261.792969 82.773438 260.734375 81.339844 C 257.757812 77.300781 255.128906 72.882812 252.730469 68.28125 C 251.585938 66.085938 250.589844 63.664062 249.628906 61.429688 C 249.257812 60.566406 249.261719 59.265625 248.484375 58.816406 C 247.429688 60.457031 245.871094 61.78125 245.054688 63.714844 C 243.746094 66.804688 243.578125 70.574219 243.09375 74.484375 C 242.808594 74.585938 242.9375 74.515625 242.769531 74.648438 C 240.492188 74.101562 239.691406 71.761719 238.847656 69.753906 C 236.710938 64.675781 236.3125 56.5 238.195312 50.660156 C 238.679688 49.148438 240.882812 44.386719 239.992188 42.988281 C 239.566406 41.597656 238.164062 40.773438 237.375 39.722656 C 236.40625 38.410156 235.433594 36.675781 234.761719 35.15625 C 233.011719 31.195312 232.195312 26.753906 230.351562 22.75 C 229.472656 20.839844 227.984375 18.90625 226.757812 17.214844 C 225.40625 15.335938 223.886719 13.945312 222.839844 11.683594 C 222.464844 10.871094 221.957031 9.578125 222.511719 8.742188 C 222.566406 8.5 222.683594 8.289062 222.859375 8.109375 C 223.035156 7.933594 223.25 7.816406 223.492188 7.765625 C 224.441406 7.035156 227.082031 8.007812 228.066406 8.417969 C 230.683594 9.503906 232.875 10.539062 235.09375 12.007812 C 236.160156 12.699219 237.234375 14.078125 238.523438 14.457031 L 239.992188 14.457031 C 242.289062 14.984375 244.867188 14.625 247.011719 15.273438 C 250.8125 16.425781 254.214844 18.222656 257.304688 20.167969 C 266.722656 26.109375 274.417969 34.5625 279.6875 44.664062 C 280.535156 46.285156 280.898438 47.835938 281.644531 49.558594 C 283.152344 53.015625 285.046875 56.605469 286.546875 60 C 288.042969 63.390625 289.496094 66.808594 291.609375 69.628906 C 292.722656 71.109375 297.011719 71.90625 298.960938 72.730469 C 300.328125 73.304688 302.566406 73.90625 303.863281 74.6875 C 306.335938 76.175781 308.730469 77.953125 311.050781 79.585938 C 312.210938 80.402344 315.777344 82.191406 315.953125 83.664062 Z M 315.949219 83.621094 " fill-opacity="1" fill-rule="nonzero"/><path fill="#00618a" d="M 242.9375 21.445312 C 241.738281 21.421875 240.890625 21.574219 239.996094 21.773438 L 239.996094 21.933594 L 240.160156 21.933594 C 240.730469 23.109375 241.738281 23.863281 242.445312 24.875 L 244.078125 28.300781 L 244.242188 28.136719 C 245.253906 27.421875 245.71875 26.285156 245.710938 24.546875 C 245.304688 24.117188 245.246094 23.585938 244.894531 23.074219 C 244.425781 22.398438 243.507812 22.011719 242.933594 21.441406 Z M 242.9375 21.445312 " fill-opacity="1" fill-rule="evenodd"/><path fill="#e48e00" d="M 312.125 130.636719 C 312.125 134.75 315.375 137.519531 319.011719 137.519531 C 322.648438 137.519531 325.898438 134.75 325.898438 130.636719 C 325.898438 126.527344 322.648438 123.757812 319.011719 123.757812 C 315.375 123.757812 312.125 126.527344 312.125 130.636719 Z M 324.355469 130.636719 C 324.355469 133.757812 321.96875 136.085938 319.011719 136.085938 C 316.019531 136.085938 313.664062 133.757812 313.664062 130.636719 C 313.664062 127.519531 316.015625 125.1875 319.011719 125.1875 C 321.96875 125.1875 324.355469 127.519531 324.355469 130.636719 Z M 320.867188 134.566406 L 322.40625 134.566406 L 320.148438 131.117188 C 321.363281 130.988281 322.277344 130.398438 322.277344 128.96875 C 322.277344 127.371094 321.269531 126.714844 319.324219 126.714844 L 316.253906 126.714844 L 316.253906 134.566406 L 317.578125 134.566406 L 317.578125 131.171875 L 318.808594 131.171875 L 320.863281 134.566406 Z M 317.578125 130.066406 L 317.578125 127.8125 L 319.101562 127.8125 C 319.890625 127.8125 320.847656 127.960938 320.847656 128.878906 C 320.847656 129.976562 319.984375 130.070312 318.992188 130.070312 L 317.578125 130.070312 Z M 317.578125 130.066406 " fill-opacity="1" fill-rule="evenodd"/></svg>