<svg xmlns="http://www.w3.org/2000/svg" xmlnsXlink="http://www.w3.org/1999/xlink" width="100" zoomAndPan="magnify" viewBox="0 0 375 149.999998"  preserveAspectRatio="xMidYMid meet" version="1.0"><defs><clipPath id="id1"><path d="M 315 38 L 374.925781 38 L 374.925781 106 L 315 106 Z M 315 38 " clip-rule="nonzero"/></clipPath><clipPath id="id2"><path d="M 1.425781 0 L 296 0 L 296 107 L 1.425781 107 Z M 1.425781 0 " clip-rule="nonzero"/></clipPath></defs><g clip-path="url(#id1)"><path fill="#83cd29" d="M 345.035156 38.148438 C 344.128906 38.148438 343.242188 38.335938 342.460938 38.777344 L 317.695312 53.074219 C 316.09375 53.996094 315.121094 55.742188 315.121094 57.59375 L 315.121094 86.132812 C 315.121094 87.988281 316.09375 89.726562 317.695312 90.652344 L 324.164062 94.378906 C 327.304688 95.925781 328.464844 95.902344 329.894531 95.902344 C 334.546875 95.902344 337.203125 93.082031 337.203125 88.175781 L 337.203125 60.019531 C 337.203125 59.621094 336.859375 59.335938 336.464844 59.335938 L 333.363281 59.335938 C 332.96875 59.335938 332.628906 59.628906 332.628906 60.019531 L 332.628906 88.1875 C 332.628906 90.363281 330.363281 92.550781 326.6875 90.710938 L 319.964844 86.769531 C 319.726562 86.640625 319.542969 86.40625 319.542969 86.140625 L 319.542969 57.601562 C 319.542969 57.328125 319.726562 57.054688 319.964844 56.917969 L 344.675781 42.671875 C 344.90625 42.539062 345.183594 42.539062 345.414062 42.671875 L 370.125 56.917969 C 370.359375 57.058594 370.542969 57.320312 370.542969 57.601562 L 370.542969 86.140625 C 370.542969 86.414062 370.40625 86.691406 370.175781 86.824219 L 345.414062 101.066406 C 345.195312 101.195312 344.902344 101.195312 344.675781 101.066406 L 338.316406 97.285156 C 338.125 97.171875 337.867188 97.179688 337.683594 97.285156 C 335.929688 98.277344 335.597656 98.394531 333.953125 98.964844 C 333.546875 99.105469 332.929688 99.324219 334.164062 100.015625 L 342.46875 104.910156 C 343.261719 105.367188 344.140625 105.59375 345.046875 105.59375 C 345.964844 105.59375 346.832031 105.375 347.621094 104.910156 L 372.386719 90.667969 C 373.988281 89.734375 374.960938 88 374.960938 86.148438 L 374.960938 57.605469 C 374.960938 55.753906 373.988281 54.011719 372.386719 53.085938 L 347.621094 38.792969 C 346.847656 38.347656 345.957031 38.160156 345.046875 38.160156 Z M 351.660156 58.542969 C 344.609375 58.542969 340.410156 61.542969 340.410156 66.53125 C 340.410156 71.9375 344.578125 73.429688 351.347656 74.097656 C 359.441406 74.890625 360.074219 76.078125 360.074219 77.671875 C 360.074219 80.433594 357.871094 81.613281 352.660156 81.613281 C 346.117188 81.613281 344.679688 79.980469 344.195312 76.71875 C 344.140625 76.371094 343.871094 76.089844 343.511719 76.089844 L 340.296875 76.089844 C 340.097656 76.09375 339.925781 76.167969 339.78125 76.308594 C 339.640625 76.453125 339.566406 76.625 339.5625 76.824219 C 339.5625 80.992188 341.828125 85.917969 352.652344 85.917969 C 360.488281 85.917969 365.007812 82.847656 365.007812 77.457031 C 365.007812 72.121094 361.359375 70.679688 353.757812 69.675781 C 346.085938 68.652344 345.347656 68.164062 345.347656 66.363281 C 345.347656 64.878906 345.96875 62.894531 351.65625 62.894531 C 356.734375 62.894531 358.613281 63.992188 359.382812 67.414062 C 359.453125 67.734375 359.734375 68 360.066406 68 L 363.28125 68 C 363.480469 68 363.671875 67.878906 363.808594 67.734375 C 363.941406 67.585938 364.039062 67.414062 364.019531 67.210938 C 363.523438 61.3125 359.589844 58.539062 351.664062 58.539062 Z M 351.660156 58.542969 " fill-opacity="1" fill-rule="nonzero"/></g><g clip-path="url(#id2)"><path fill="#656656" d="M 199.453125 0.734375 C 199.171875 0.734375 198.90625 0.804688 198.664062 0.945312 C 198.421875 1.085938 198.226562 1.28125 198.085938 1.523438 C 197.945312 1.769531 197.875 2.03125 197.875 2.3125 L 197.875 42.519531 C 197.875 42.914062 197.691406 43.265625 197.347656 43.464844 C 196.980469 43.679688 196.613281 43.679688 196.246094 43.464844 L 189.671875 39.679688 C 189.183594 39.398438 188.660156 39.257812 188.09375 39.257812 C 187.53125 39.257812 187.003906 39.398438 186.519531 39.679688 L 160.285156 54.816406 C 159.304688 55.382812 158.707031 56.472656 158.707031 57.601562 L 158.707031 87.875 C 158.703125 88.441406 158.84375 88.964844 159.128906 89.453125 C 159.410156 89.941406 159.792969 90.328125 160.285156 90.609375 L 186.519531 105.746094 C 187.007812 106.027344 187.53125 106.171875 188.097656 106.171875 C 188.660156 106.171875 189.1875 106.027344 189.671875 105.746094 L 215.910156 90.609375 C 216.398438 90.328125 216.785156 89.941406 217.066406 89.453125 C 217.347656 88.964844 217.488281 88.441406 217.488281 87.875 L 217.488281 12.402344 C 217.488281 11.253906 216.859375 10.175781 215.859375 9.617188 L 200.242188 0.890625 C 199.996094 0.753906 199.722656 0.730469 199.453125 0.730469 Z M 30.679688 38.523438 C 30.179688 38.542969 29.710938 38.632812 29.261719 38.890625 L 3.027344 54.027344 C 2.535156 54.308594 2.152344 54.695312 1.867188 55.183594 C 1.585938 55.671875 1.445312 56.199219 1.449219 56.761719 L 1.5 97.390625 C 1.5 97.957031 1.792969 98.480469 2.289062 98.757812 C 2.777344 99.046875 3.382812 99.046875 3.867188 98.757812 L 19.429688 89.820312 C 20.417969 89.234375 21.058594 88.214844 21.058594 87.089844 L 21.058594 68.113281 C 21.058594 66.980469 21.65625 65.945312 22.636719 65.382812 L 29.261719 61.542969 C 29.75 61.261719 30.277344 61.121094 30.839844 61.125 C 31.40625 61.121094 31.929688 61.261719 32.417969 61.542969 L 39.039062 65.378906 C 40.019531 65.941406 40.617188 66.980469 40.617188 68.109375 L 40.617188 87.085938 C 40.617188 88.214844 41.273438 89.238281 42.246094 89.816406 L 57.808594 98.75 C 58.296875 99.042969 58.902344 99.042969 59.386719 98.75 C 59.867188 98.472656 60.175781 97.949219 60.175781 97.386719 L 60.226562 56.757812 C 60.230469 56.195312 60.089844 55.667969 59.808594 55.179688 C 59.527344 54.691406 59.140625 54.304688 58.652344 54.027344 L 32.414062 38.894531 C 31.972656 38.632812 31.5 38.546875 30.996094 38.527344 L 30.683594 38.527344 Z M 266.429688 38.890625 C 265.867188 38.890625 265.339844 39.03125 264.855469 39.3125 L 238.617188 54.449219 C 237.636719 55.015625 237.039062 56.050781 237.039062 57.183594 L 237.039062 87.457031 C 237.039062 88.59375 237.679688 89.625 238.667969 90.1875 L 264.695312 105.015625 C 265.65625 105.5625 266.828125 105.605469 267.796875 105.066406 L 283.570312 96.289062 C 284.070312 96.011719 284.40625 95.492188 284.410156 94.921875 C 284.410156 94.355469 284.113281 93.839844 283.621094 93.558594 L 257.226562 78.421875 C 256.730469 78.140625 256.386719 77.570312 256.386719 77 L 256.386719 67.535156 C 256.386719 66.96875 256.738281 66.449219 257.226562 66.167969 L 265.429688 61.4375 C 265.914062 61.15625 266.515625 61.15625 267.007812 61.4375 L 275.226562 66.167969 C 275.472656 66.308594 275.664062 66.5 275.804688 66.746094 C 275.945312 66.988281 276.015625 67.253906 276.015625 67.535156 L 276.015625 74.996094 C 276.015625 75.28125 276.085938 75.542969 276.226562 75.785156 C 276.367188 76.03125 276.558594 76.222656 276.804688 76.363281 C 277.296875 76.648438 277.890625 76.648438 278.382812 76.363281 L 294.101562 67.21875 C 295.078125 66.652344 295.679688 65.613281 295.679688 64.484375 L 295.679688 57.179688 C 295.679688 56.617188 295.539062 56.09375 295.257812 55.605469 C 294.972656 55.117188 294.589844 54.730469 294.101562 54.449219 L 268.023438 39.3125 C 267.535156 39.03125 267.007812 38.890625 266.445312 38.890625 Z M 187.988281 61.492188 C 188.136719 61.492188 188.277344 61.527344 188.40625 61.597656 L 197.398438 66.800781 C 197.640625 66.941406 197.820312 67.203125 197.820312 67.484375 L 197.820312 77.890625 C 197.820312 78.171875 197.644531 78.433594 197.398438 78.574219 L 188.40625 83.777344 C 188.164062 83.914062 187.863281 83.914062 187.617188 83.777344 L 178.628906 78.574219 C 178.382812 78.433594 178.207031 78.171875 178.207031 77.890625 L 178.207031 67.488281 C 178.207031 67.207031 178.382812 66.945312 178.628906 66.804688 L 187.617188 61.601562 C 187.742188 61.53125 187.847656 61.496094 187.988281 61.496094 Z M 187.988281 61.492188 " fill-opacity="1" fill-rule="nonzero"/></g><path fill="#83cd29" d="M 109.492188 38.734375 C 108.925781 38.734375 108.402344 38.875 107.910156 39.15625 L 81.675781 54.238281 C 80.695312 54.804688 80.097656 55.894531 80.097656 57.023438 L 80.097656 87.296875 C 80.097656 87.863281 80.238281 88.386719 80.519531 88.875 C 80.800781 89.363281 81.1875 89.75 81.675781 90.03125 L 107.910156 105.167969 C 108.398438 105.449219 108.925781 105.589844 109.488281 105.589844 C 110.054688 105.589844 110.578125 105.449219 111.066406 105.167969 L 137.300781 90.03125 C 137.792969 89.75 138.175781 89.363281 138.457031 88.875 C 138.742188 88.386719 138.878906 87.859375 138.878906 87.296875 L 138.878906 57.027344 C 138.878906 55.894531 138.285156 54.804688 137.300781 54.242188 L 111.066406 39.15625 C 110.578125 38.875 110.050781 38.734375 109.488281 38.734375 Z M 266.378906 65.75 C 266.277344 65.75 266.160156 65.75 266.0625 65.800781 L 261.015625 68.746094 C 260.8125 68.859375 260.707031 69.035156 260.703125 69.269531 L 260.703125 75.050781 C 260.703125 75.269531 260.828125 75.46875 261.015625 75.578125 L 266.0625 78.46875 C 266.257812 78.585938 266.449219 78.585938 266.640625 78.46875 L 271.6875 75.578125 C 271.875 75.46875 272.003906 75.269531 272.003906 75.050781 L 272.003906 69.269531 C 272.003906 69.050781 271.875 68.851562 271.6875 68.742188 L 266.640625 65.800781 C 266.546875 65.746094 266.484375 65.75 266.378906 65.75 Z M 266.378906 65.75 " fill-opacity="1" fill-rule="nonzero"/></svg>